<?xml version="1.0" encoding="UTF-8" standalone="no"?>
<!-- Created with Inkscape (http://www.inkscape.org/) -->

<svg
   width="300"
   height="80"
   viewBox="0 0 79.374999 21.166667"
   version="1.1"
   id="svg291"
   inkscape:version="1.2.1 (9c6d41e410, 2022-07-14)"
   sodipodi:docname="update.svg"
   xml:space="preserve"
   xmlns:inkscape="http://www.inkscape.org/namespaces/inkscape"
   xmlns:sodipodi="http://sodipodi.sourceforge.net/DTD/sodipodi-0.dtd"
   xmlns="http://www.w3.org/2000/svg"
   xmlns:svg="http://www.w3.org/2000/svg"><sodipodi:namedview
     id="namedview293"
     pagecolor="#ffffff"
     bordercolor="#666666"
     borderopacity="1.0"
     inkscape:pageshadow="2"
     inkscape:pageopacity="0.0"
     inkscape:pagecheckerboard="0"
     inkscape:document-units="px"
     showgrid="false"
     width="1920px"
     units="px"
     borderlayer="true"
     inkscape:showpageshadow="false"
     inkscape:zoom="4.6583349"
     inkscape:cx="135.34879"
     inkscape:cy="41.216444"
     inkscape:window-width="1440"
     inkscape:window-height="890"
     inkscape:window-x="-6"
     inkscape:window-y="-6"
     inkscape:window-maximized="1"
     inkscape:current-layer="layer1"
     inkscape:deskcolor="#d1d1d1" /><defs
     id="defs288" /><g
     inkscape:label="Layer 1"
     inkscape:groupmode="layer"
     id="layer1"><path
       id="rect1625"
       style="fill:#50fa7b;fill-opacity:1;stroke:#0f451d;stroke-width:0.593381;stroke-dasharray:none;stroke-opacity:1;paint-order:normal"
       d="m 50.52517,5.3570989 c -0.643062,0 -1.160653,0.5900216 -1.160653,1.3229166 v 1.0764201 h -1.07642 c -0.732895,0 -1.322916,0.5175908 -1.322916,1.1606533 0,0.643061 0.590021,1.1611691 1.322916,1.1611691 h 1.07642 v 1.076421 c 0,0.732895 0.517591,1.322917 1.160653,1.322917 0.643062,0 1.160653,-0.590022 1.160653,-1.322917 v -1.076421 h 1.076937 c 0.732895,0 1.322916,-0.5181081 1.322916,-1.1611691 0,-0.6430625 -0.590021,-1.1606533 -1.322916,-1.1606533 H 51.685823 V 6.6800155 c 0,-0.732895 -0.517591,-1.3229166 -1.160653,-1.3229166 z" /><path
       id="path2678"
       style="fill:#50fa7b;fill-opacity:1;stroke:#0f451d;stroke-width:0.593381;stroke-dasharray:none;stroke-opacity:1;paint-order:normal"
       d="m 57.791691,5.357099 c -0.643062,0 -1.160653,0.5900216 -1.160653,1.3229166 v 1.0764201 h -1.07642 c -0.732895,0 -1.322916,0.5175908 -1.322916,1.1606522 0,0.643062 0.590021,1.1611701 1.322916,1.1611701 h 1.07642 v 1.076421 c 0,0.732895 0.517591,1.322917 1.160653,1.322917 0.643062,0 1.160653,-0.590022 1.160653,-1.322917 v -1.076421 h 1.076937 c 0.732895,0 1.322916,-0.5181081 1.322916,-1.1611701 0,-0.6430614 -0.590021,-1.1606522 -1.322916,-1.1606522 H 58.952344 V 6.6800156 c 0,-0.732895 -0.517591,-1.3229166 -1.160653,-1.3229166 z" /><path
       id="rect371"
       style="fill:#ffc500;fill-opacity:1;stroke-width:1.05833333;stroke-linecap:round;stroke-linejoin:round;stroke:#5a3c10;stroke-opacity:1;stroke-dasharray:none;paint-order:markers stroke fill"
       d="m 32.08906,1.7363845 v 9.1207695 h 1.806095 v 8.573129 h 3.662947 v -0.453069 h 2.563217 v -1.726503 h -2.563217 v -0.879744 h 1.397926 v -1.242644 h -1.397926 v -0.908338 h 2.097945 v -1.273432 h -2.097945 v -2.089399 h 5.621311 L 47.28594,6.1615099 43.179413,1.7363845 Z m 3.324569,2.4720872 h 5.570347 L 42.9678,5.9987563 40.983976,7.8968101 h -5.570347 z"
       sodipodi:nodetypes="cccccccccccccccccccccccccccc" /><path
       id="path4685"
       style="fill:#ffc500;fill-opacity:1;stroke-width:1.05833333;stroke-linecap:round;stroke-linejoin:round;stroke:none;stroke-opacity:1;stroke-dasharray:none;paint-order:markers stroke fill"
       d="m 32.08906,1.7363845 v 9.1207695 h 1.806095 v 8.573129 h 3.662947 v -0.453069 h 2.563217 v -1.726503 h -2.563217 v -0.879744 h 1.397926 v -1.242644 h -1.397926 v -0.908338 h 2.097945 v -1.273432 h -2.097945 v -2.089399 h 5.621311 L 47.28594,6.1615099 43.179413,1.7363845 Z m 3.324569,2.4720872 h 5.570347 L 42.9678,5.9987563 40.983976,7.8968101 h -5.570347 z"
       sodipodi:nodetypes="cccccccccccccccccccccccccccc" /></g></svg>
