<?xml version="1.0" encoding="UTF-8" standalone="no"?>
<!-- Created with Inkscape (http://www.inkscape.org/) -->

<svg
   width="128"
   height="128"
   viewBox="0 0 33.866667 33.866668"
   version="1.1"
   id="svg291"
   inkscape:version="1.3 (0e150ed6c4, 2023-07-21)"
   sodipodi:docname="logo.svg"
   xmlns:inkscape="http://www.inkscape.org/namespaces/inkscape"
   xmlns:sodipodi="http://sodipodi.sourceforge.net/DTD/sodipodi-0.dtd"
   xmlns="http://www.w3.org/2000/svg"
   xmlns:svg="http://www.w3.org/2000/svg">
  <sodipodi:namedview
     id="namedview293"
     pagecolor="#ffffff"
     bordercolor="#666666"
     borderopacity="1.0"
     inkscape:pageshadow="2"
     inkscape:pageopacity="0.0"
     inkscape:pagecheckerboard="0"
     inkscape:document-units="px"
     showgrid="false"
     width="1920px"
     units="px"
     borderlayer="true"
     inkscape:showpageshadow="false"
     inkscape:deskcolor="#d1d1d1"
     inkscape:zoom="4.9084996"
     inkscape:cx="47.672409"
     inkscape:cy="62.442707"
     inkscape:window-width="2560"
     inkscape:window-height="1377"
     inkscape:window-x="-8"
     inkscape:window-y="-8"
     inkscape:window-maximized="1"
     inkscape:current-layer="layer1" />
  <defs
     id="defs288" />
  <g
     inkscape:label="Layer 1"
     inkscape:groupmode="layer"
     id="layer1">
    <g
       id="g1129"
       transform="matrix(1.0074849,0,0,1.0074849,-357.47088,-20.009688)"
       style="stroke-width:0.859254">
      <path
         id="path431"
         style="fill:#ca7800;fill-opacity:1;stroke:none;stroke-width:2.27344;stroke-linecap:round;stroke-linejoin:round;stroke-dasharray:none;stroke-opacity:1;paint-order:markers stroke fill"
         d="m 379.0355,20.108811 -18.29971,2.24e-4 v 1.199754 14.001498 1.199978 h 2.98027 V 49.599022 50.799 h 6.04395 v -0.755416 h 4.22939 v -1.199978 -1.677514 -1.199977 h -4.22939 v -0.266289 h 2.30674 v -1.199972 -0.871073 -1.199973 h -2.30674 v -0.313976 h 3.46165 v -1.199978 -0.922542 -1.199753 h -3.46165 v -2.282518 h 9.27549 l 6.77616,-7.826249 0.0144,-0.630997 -0.0144,-0.568756 z m -12.81392,5.320228 h 9.19144 l 2.63457,2.401287 -2.63457,2.546133 h -9.19144 z"
         sodipodi:nodetypes="ccccccccccccccccccccccccccccccccccccccc" />
      <path
         id="rect371"
         style="fill:#ffc500;fill-opacity:1;stroke-width:0.45469;stroke-linecap:round;stroke-linejoin:round"
         d="m 360.7358,20.10894 v 15.201429 h 2.98019 v 14.288666 h 6.04403 v -0.755329 h 4.22947 v -2.877561 h -4.22947 v -1.466197 h 2.30671 v -2.071092 h -2.30671 v -1.513959 h 3.46174 v -2.12239 h -3.46174 v -3.482375 h 9.27552 l 6.77601,-7.826132 -6.77601,-7.375297 z m 5.48576,4.120151 h 9.19139 l 3.27346,2.98386 -3.27346,3.163482 h -9.19139 z"
         sodipodi:nodetypes="cccccccccccccccccccccccccccc" />
      <path
         id="rect1821"
         style="fill:#ffcf2b;fill-opacity:1;stroke:none;stroke-width:2.27344;stroke-linecap:round;stroke-linejoin:round;stroke-dasharray:none;stroke-opacity:1;paint-order:markers stroke fill"
         d="m 375.35566,20.108811 -6.03026,2.24e-4 -2.78018,4.120027 h 6.03004 z m 2.07664,0 -2.78018,4.120251 h 0.7609 l 0.39865,0.363449 3.0255,-4.4837 z m 5.56014,4.306766 -7.35152,10.894489 h 1.40486 l 6.75675,-10.012946 z m -16.77086,0.29303 -5.48579,8.12953 v 2.47215 h 2.98028 l -10e-6,2.047649 4.711,-6.981476 h -2.20548 z m 4.28212,5.667853 -6.78764,10.058851 v 2.081962 l 8.19251,-12.140813 z m 2.71796,8.518603 -1.36295,2.019792 h 1.36295 z m -2.38439,3.533743 -4.83851,7.170216 h 1.40487 l 2.45146,-3.632907 h -0.0951 v -1.466264 h 1.08453 l 1.22221,-1.811217 -1e-5,-0.259828 z" />
      <path
         id="path1764"
         style="fill:#ffecab;fill-opacity:1;stroke-width:0.45469;stroke-linecap:round;stroke-linejoin:round"
         d="m 366.22158,23.987063 v 0.241998 h 9.19144 l 3.14463,2.866349 0.12884,-0.124565 -3.27347,-2.983782 z m 19.4822,3.379543 -6.66828,7.701459 h -9.27549 v 0.241998 h 9.27549 l 6.77616,-7.826024 z m -24.96799,7.701683 v 0.241998 h 2.98027 v -0.241998 z m 9.02422,5.604563 v 0.242002 h 3.46165 v -0.242002 z m 0,3.584999 v 0.242003 h 2.30674 v -0.242003 z m 0,4.343757 v 0.241998 h 4.22939 v -0.241998 z m -6.04395,0.755416 v 0.241998 h 6.04395 v -0.241998 z" />
    </g>
  </g>
</svg>
